<?xml version="1.0" encoding="utf-8"?>
<!-- Generator: Adobe Illustrator 18.1.0, SVG Export Plug-In . SVG Version: 6.00 Build 0)  -->
<svg version="1.1" baseProfile="basic" id="Layer_1"
	 xmlns="http://www.w3.org/2000/svg" xmlns:xlink="http://www.w3.org/1999/xlink" x="0px" y="0px" viewBox="0 0 64 48"
	 xml:space="preserve">
<g>
	<g>
		<polygon opacity="0.3" points="6,22 20,15 60,35 46,42 		"/>
		<polygon fill="#2D3134" points="11.3,20.1 11.3,23.8 13.8,22.6 13.8,18.8 		"/>
		<polygon opacity="0.39" points="11.3,20.1 11.3,23.8 13.8,22.6 13.8,18.8 		"/>
		<g>
			<path fill="#2D3134" d="M15.7,19.7c-0.7-0.4-1.4-0.4-1.9-0.2l0,0l-1.4,0.7l0,0c-0.5,0.2-0.9,0.8-0.9,1.6c0,1.5,1.3,3.4,2.8,4.2
				c0.8,0.4,1.5,0.4,2,0.2c0,0,1.4-0.7,1.5-0.8c0.5-0.3,0.7-0.8,0.7-1.5C18.5,22.3,17.2,20.5,15.7,19.7z"/>
			<path opacity="0.39" d="M16.3,26.1c0.2-0.1,1.4-0.7,1.5-0.7c0.5-0.3,0.7-0.8,0.7-1.5c0-0.6-0.2-1.3-0.5-1.9l-1.4,0.7
				c0.3,0.6,0.5,1.3,0.5,1.9C17.1,25.3,16.8,25.9,16.3,26.1z"/>
			<path fill="#999999" d="M16.4,24.2c0,1.2-0.9,1.6-2.1,1s-2.1-2-2.1-3.2s0.9-1.6,2.1-1C15.5,21.6,16.4,23.1,16.4,24.2z"/>
			<path opacity="0.15" d="M14.5,25.2c-1.2-0.6-2.1-2-2.1-3.2c0-0.6,0.2-1,0.6-1.2c-0.5,0.1-0.8,0.6-0.8,1.2c0,1.2,0.9,2.6,2.1,3.2
				c0.6,0.3,1.1,0.3,1.5,0.1C15.4,25.5,15,25.4,14.5,25.2z"/>
			<path fill="#2D3134" d="M15.4,23.5c0,0.5-0.4,0.7-0.9,0.4c-0.5-0.2-0.9-0.8-0.9-1.3c0-0.5,0.4-0.7,0.9-0.4
				C15,22.5,15.4,23,15.4,23.5z"/>
			<path opacity="0.39" d="M15.4,23.5c0,0.5-0.4,0.7-0.9,0.4c-0.5-0.2-0.9-0.8-0.9-1.3c0-0.5,0.4-0.7,0.9-0.4
				C15,22.5,15.4,23,15.4,23.5z"/>
			<path fill="#2D3134" d="M15.2,23.6c0,0.5-0.4,0.7-0.9,0.4c-0.5-0.2-0.9-0.8-0.9-1.3c0-0.5,0.4-0.7,0.9-0.4
				C14.8,22.5,15.2,23.1,15.2,23.6z"/>
			<path opacity="0.06" d="M17.1,24.6c0,1.5-1.3,2.2-2.8,1.4c-1.5-0.8-2.8-2.7-2.8-4.2c0-1.5,1.3-2.2,2.8-1.4
				C15.8,21.2,17.1,23,17.1,24.6z"/>
		</g>
	</g>
	<g>
		<polygon fill="#2D3134" points="5,15 5,17 37,33 37,31 		"/>
		<polygon fill="#2D3134" points="51,24 51,26 37,33 37,31 		"/>
		<g>
			<polygon fill="#28896D" points="19,4 5,11 5,15 37,31 51,24 51,20 			"/>
			<polygon opacity="0.39" points="11,13 19,9 19,5 7,11 			"/>
			<polygon opacity="0.06" points="37,33 5,17 5,11 37,27 			"/>
			<polygon opacity="0.39" points="51,20 37,27 37,33 51,26 			"/>
			<path fill="#28896D" d="M19,4L5,11l32,16l14-7L19,4z M37,26L7,11l12-6l30,15L37,26z"/>
			<polygon opacity="0.06" points="45,22 49,20 19,5 19,9 			"/>
			<polygon opacity="0.1" fill="#FFFFFF" points="45,22 19,9 11,13 37,26 			"/>
		</g>
	</g>
	<polygon fill="#2D3134" points="51,24 51,26 37,33 37,31 	"/>
	<g>
		<path fill="#2D3134" d="M42.2,32.9c-0.7-0.4-1.4-0.4-1.9-0.2l0,0l-1.4,0.7l0,0C38.3,33.6,38,34.2,38,35c0,1.5,1.3,3.4,2.8,4.2
			c0.8,0.4,1.5,0.4,2,0.2c0,0,1.4-0.7,1.5-0.8c0.5-0.3,0.7-0.8,0.7-1.5C45,35.5,43.7,33.6,42.2,32.9z"/>
		<path opacity="0.39" d="M42.8,39.3c0.2-0.1,1.4-0.7,1.5-0.7c0.5-0.3,0.7-0.8,0.7-1.5c0-0.6-0.2-1.3-0.5-1.9l-1.4,0.7
			c0.3,0.6,0.5,1.3,0.5,1.9C43.6,38.5,43.3,39.1,42.8,39.3z"/>
		<path fill="#999999" d="M42.9,37.4c0,1.2-0.9,1.6-2.1,1s-2.1-2-2.1-3.2s0.9-1.6,2.1-1S42.9,36.2,42.9,37.4z"/>
		<path opacity="0.15" d="M41,38.4c-1.2-0.6-2.1-2-2.1-3.2c0-0.6,0.2-1,0.6-1.2c-0.5,0.1-0.8,0.6-0.8,1.2c0,1.2,0.9,2.6,2.1,3.2
			c0.6,0.3,1.1,0.3,1.5,0.1C41.9,38.7,41.5,38.6,41,38.4z"/>
		<path fill="#2D3134" d="M41.8,36.7c0,0.5-0.4,0.7-0.9,0.4c-0.5-0.2-0.9-0.8-0.9-1.3c0-0.5,0.4-0.7,0.9-0.4
			C41.5,35.6,41.8,36.2,41.8,36.7z"/>
		<path opacity="0.39" d="M41.8,36.7c0,0.5-0.4,0.7-0.9,0.4c-0.5-0.2-0.9-0.8-0.9-1.3c0-0.5,0.4-0.7,0.9-0.4
			C41.5,35.6,41.8,36.2,41.8,36.7z"/>
		<path fill="#2D3134" d="M41.7,36.8c0,0.5-0.4,0.7-0.9,0.4c-0.5-0.2-0.9-0.8-0.9-1.3s0.4-0.7,0.9-0.4
			C41.3,35.7,41.7,36.3,41.7,36.8z"/>
		<path opacity="0.06" d="M43.6,37.8c0,1.5-1.3,2.2-2.8,1.4S38,36.5,38,35s1.3-2.2,2.8-1.4S43.6,36.2,43.6,37.8z"/>
	</g>
	<path fill="#E5E5E5" d="M58,18l-6-3l-14,7v11.3c0,0.3,0.4,0.5,0.7,0.3c0,0,0,0,0,0c1.2-1,3.3-0.3,4.8,1.5c0.9,1.1,1.3,2.3,1.3,3.3
		L46,39l14-7v-8L58,18z"/>
	<path fill="#3399CC" d="M46.4,30.5l-1.7-5c-0.1-0.2,0-0.3,0.2-0.4l12.5-6.2c0.2-0.1,0.4,0,0.5,0.2l1.6,4.7c0.1,0.2,0,0.3-0.2,0.4
		l-12.4,6.5C46.7,30.8,46.4,30.7,46.4,30.5z"/>
	<path opacity="0.15" d="M48.7,23.2l8.6-4.3c0.2-0.1,0.4,0,0.5,0.2l1.5,4.4L48.7,23.2z"/>
	<path fill="#2D3134" d="M59.4,23.8l-0.1-0.3c0,0.2,0,0.3-0.2,0.4l-12.4,6.5c-0.2,0.1-0.4,0-0.5-0.2l0.1,0.3
		c0.1,0.2,0.3,0.3,0.5,0.2l12.4-6.5C59.4,24.1,59.5,24,59.4,23.8z"/>
	<polygon fill="#FFFFFF" points="49.5,30 56.5,26.5 56.5,32.3 49.5,35.8 	"/>
	<polygon fill="#2D3134" points="50,35 56,32 56,27.3 50,30.3 	"/>
	<polygon fill="#2D3134" points="60,32 60,30 46,37 46,39 	"/>
	<polygon fill="#2D3134" points="44,38 46,39 46,37 44,36 	"/>
	<polygon fill="#FFFFFF" points="50,35 50,36 56,33 56,32 	"/>
	<path fill="#3399CC" d="M43.5,25.3l-3.8-1.9c-0.1-0.1-0.3,0-0.3,0.2v3c0,0.2,0.1,0.4,0.3,0.4l1.3,0.7c0.1,0.1,0.2,0.1,0.3,0.2
		l1.3,1.6c0,0,0,0,0.1,0l2.2,1.1c0.1,0.1,0.3-0.1,0.2-0.2l-1.7-5C43.6,25.4,43.6,25.3,43.5,25.3z"/>
	<path opacity="0.15" d="M45.3,30.3l-2-1c0,0,0,0-0.1,0l-1.3-1.6c-0.1-0.1-0.2-0.2-0.3-0.2l-1.3-0.7c-0.2-0.1-0.3-0.2-0.3-0.4v-2.9
		l-0.2-0.1c-0.1-0.1-0.3,0-0.3,0.2v3c0,0.2,0.1,0.4,0.3,0.4l1.3,0.7c0.1,0.1,0.2,0.1,0.3,0.2l1.3,1.6c0,0,0,0,0.1,0l2.2,1.1
		C45.2,30.7,45.3,30.6,45.3,30.3L45.3,30.3z"/>
	<polygon fill="#FFCC00" points="46,35 46,37 45.5,36.8 45.5,34.8 	"/>
	<polygon fill="#E5E5E5" points="50,31 50,31.3 56,28.3 56,28 	"/>
	<polygon fill="#E5E5E5" points="50,32 50,32.3 56,29.3 56,29 	"/>
	<polygon fill="#E5E5E5" points="50,33 50,33.3 56,30.3 56,30 	"/>
	<polygon fill="#E5E5E5" points="50,34 50,34.3 56,31.3 56,31 	"/>
	<polygon opacity="0.5" fill="#2D3134" points="39.5,28.3 39.5,28.8 40.5,29.3 40.5,28.8 	"/>
	<polygon opacity="0.5" fill="#FFFFFF" points="40.5,29.5 39.5,29 39.5,28.8 40.5,29.3 	"/>
	<path fill="#2D3134" d="M53.5,23.9c-0.1-0.1-0.2-0.1-0.3,0l-3.8,4.3c-0.1,0.1-0.1,0.2,0,0.3s0.2,0.1,0.3,0l1-1.2v1H51V27h0l2.5-2.9
		C53.6,24.1,53.6,23.9,53.5,23.9z"/>
	<path fill="#2D3134" d="M57.1,21.9c-0.1-0.1-0.2-0.1-0.3,0L53,26.2c-0.1,0.1-0.1,0.2,0,0.3c0.1,0.1,0.2,0.1,0.3,0l0.9-1v1.1h0.3
		v-1.4l2.6-3C57.2,22.1,57.2,22,57.1,21.9z"/>
	<path fill="#FFFFFF" d="M58,31l2-1v-2l-1,0.5c-0.6,0.3-1,0.9-1,1.6V31z"/>
	
		<ellipse transform="matrix(-0.6313 0.7756 -0.7756 -0.6313 118.699 2.658)" opacity="0.3" fill="#2D3134" cx="58.7" cy="29.5" rx="0.8" ry="0.5"/>
	
		<ellipse transform="matrix(-0.6313 0.7756 -0.7756 -0.6313 119.5146 2.2702)" opacity="0.3" fill="#2D3134" cx="59.2" cy="29.5" rx="0.8" ry="0.5"/>
	<polygon opacity="0.3" fill="#FFFFFF" points="58,31 60,30 60,28 	"/>
	<path fill="#FFFFFF" d="M46,37l2-1v-0.9c0-0.5-0.5-0.8-1-0.6L46,35V37z"/>
	
		<ellipse transform="matrix(-0.6313 0.7756 -0.7756 -0.6313 104.5927 21.3646)" opacity="0.3" fill="#2D3134" cx="47.2" cy="35.5" rx="0.8" ry="0.5"/>
	
		<ellipse transform="matrix(-0.6313 0.7756 -0.7756 -0.6313 103.7771 21.7524)" opacity="0.3" fill="#2D3134" cx="46.7" cy="35.5" rx="0.8" ry="0.5"/>
	<polygon opacity="0.3" fill="#FFFFFF" points="46,37 48,36 46,35 	"/>
	<path opacity="0.06" d="M44,25l-6-3v11.3c0,0.3,0.4,0.5,0.7,0.3c0,0,0,0,0,0c1.2-1,3.3-0.3,4.8,1.5c0.3,0.3,0.5,0.6,0.6,1
		L44,36v2l2,1v0v-2v-6L44,25z"/>
	<polygon opacity="0.39" points="58,18 44,25 46,31 46,39 60,32 60,24 	"/>
</g>
</svg>
